<svg xmlns="http://www.w3.org/2000/svg" viewBox="0 0 1200 900" width="1200" height="900" role="img" aria-label="Veeranjaneya temple arch, Moodigere"><defs><linearGradient id="g10" x1="0" y1="0" x2="0.6" y2="1"><stop offset="0" stop-color="#0A0908"/><stop offset="0.55" stop-color="#1B2A31"/><stop offset="1" stop-color="#0A0908"/></linearGradient><radialGradient id="r10" cx="0.5" cy="0.34" r="0.62"><stop offset="0" stop-color="#EAE0D5" stop-opacity="0.42"/><stop offset="1" stop-color="#EAE0D5" stop-opacity="0"/></radialGradient></defs><rect width="1200" height="900" fill="url(#g10)"/><rect width="1200" height="900" fill="url(#r10)"/><rect x="390" y="780" width="420" height="46" fill="#0A0908" opacity="0.75"/><rect x="430" y="754" width="340" height="26" fill="#0A0908" opacity="0.55"/><path d="M524 186 L676 186 L706 267 L494 267 Z" fill="#EAE0D5" opacity="0.30"/><path d="M494 267 L706 267 L727 348 L473 348 Z" fill="#EAE0D5" opacity="0.35"/><path d="M473 348 L727 348 L737 429 L463 429 Z" fill="#EAE0D5" opacity="0.41"/><path d="M463 429 L737 429 L735 511 L465 511 Z" fill="#EAE0D5" opacity="0.46"/><path d="M465 511 L735 511 L720 592 L480 592 Z" fill="#EAE0D5" opacity="0.52"/><path d="M480 592 L720 592 L695 673 L505 673 Z" fill="#EAE0D5" opacity="0.57"/><path d="M505 673 L695 673 L663 754 L537 754 Z" fill="#EAE0D5" opacity="0.63"/><circle cx="600" cy="140" r="52" fill="#EAE0D5" opacity="0.42"/><circle cx="600" cy="140" r="86" fill="none" stroke="#EAE0D5" stroke-opacity="0.30" stroke-width="3"/><circle cx="600" cy="226" r="250" fill="none" stroke="#EAE0D5" stroke-opacity="0.13" stroke-width="2"/><circle cx="600" cy="226" r="360" fill="none" stroke="#EAE0D5" stroke-opacity="0.10" stroke-width="2"/><circle cx="600" cy="226" r="470" fill="none" stroke="#EAE0D5" stroke-opacity="0.07" stroke-width="2"/><rect x="26" y="26" width="1148" height="848" fill="none" stroke="#EAE0D5" stroke-opacity="0.28" stroke-width="2"/><text x="60" y="796" font-family="Georgia,serif" font-size="30" fill="#EAE0D5" opacity="0.9">04</text><text x="60" y="838" font-family="Helvetica,Arial,sans-serif" font-size="26" fill="#ffffff" opacity="0.82">Veeranjaneya temple arch, Moodigere</text><text x="1140" y="80" text-anchor="end" font-family="Helvetica,Arial,sans-serif" font-size="20" letter-spacing="6" fill="#EAE0D5" opacity="0.65">PLACEHOLDER</text></svg>