<svg xmlns="http://www.w3.org/2000/svg" viewBox="0 0 1200 900" width="1200" height="900" role="img" aria-label="Yakshagana panel, FRP"><defs><linearGradient id="g24" x1="0" y1="0" x2="0.6" y2="1"><stop offset="0" stop-color="#0A0908"/><stop offset="0.55" stop-color="#22333B"/><stop offset="1" stop-color="#0A0908"/></linearGradient><radialGradient id="r24" cx="0.5" cy="0.34" r="0.62"><stop offset="0" stop-color="#C6AC8F" stop-opacity="0.42"/><stop offset="1" stop-color="#C6AC8F" stop-opacity="0"/></radialGradient></defs><rect width="1200" height="900" fill="url(#g24)"/><rect width="1200" height="900" fill="url(#r24)"/><rect x="390" y="780" width="420" height="46" fill="#0A0908" opacity="0.75"/><rect x="430" y="754" width="340" height="26" fill="#0A0908" opacity="0.55"/><path d="M524 195 L676 195 L706 275 L494 275 Z" fill="#C6AC8F" opacity="0.30"/><path d="M494 275 L706 275 L727 355 L473 355 Z" fill="#C6AC8F" opacity="0.35"/><path d="M473 355 L727 355 L737 435 L463 435 Z" fill="#C6AC8F" opacity="0.41"/><path d="M463 435 L737 435 L735 514 L465 514 Z" fill="#C6AC8F" opacity="0.46"/><path d="M465 514 L735 514 L720 594 L480 594 Z" fill="#C6AC8F" opacity="0.52"/><path d="M480 594 L720 594 L695 674 L505 674 Z" fill="#C6AC8F" opacity="0.57"/><path d="M505 674 L695 674 L663 754 L537 754 Z" fill="#C6AC8F" opacity="0.63"/><circle cx="600" cy="149" r="52" fill="#C6AC8F" opacity="0.42"/><circle cx="600" cy="149" r="86" fill="none" stroke="#C6AC8F" stroke-opacity="0.30" stroke-width="3"/><circle cx="600" cy="235" r="250" fill="none" stroke="#C6AC8F" stroke-opacity="0.13" stroke-width="2"/><circle cx="600" cy="235" r="360" fill="none" stroke="#C6AC8F" stroke-opacity="0.10" stroke-width="2"/><circle cx="600" cy="235" r="470" fill="none" stroke="#C6AC8F" stroke-opacity="0.07" stroke-width="2"/><rect x="26" y="26" width="1148" height="848" fill="none" stroke="#C6AC8F" stroke-opacity="0.28" stroke-width="2"/><text x="60" y="796" font-family="Georgia,serif" font-size="30" fill="#C6AC8F" opacity="0.9">05</text><text x="60" y="838" font-family="Helvetica,Arial,sans-serif" font-size="26" fill="#ffffff" opacity="0.82">Yakshagana panel, FRP</text><text x="1140" y="80" text-anchor="end" font-family="Helvetica,Arial,sans-serif" font-size="20" letter-spacing="6" fill="#C6AC8F" opacity="0.65">PLACEHOLDER</text></svg>