<svg xmlns="http://www.w3.org/2000/svg" viewBox="0 0 1200 900" width="1200" height="900" role="img" aria-label="Bronze portrait study II"><defs><linearGradient id="g14" x1="0" y1="0" x2="0.6" y2="1"><stop offset="0" stop-color="#1d1209"/><stop offset="0.55" stop-color="#7a4a19"/><stop offset="1" stop-color="#1d1209"/></linearGradient><radialGradient id="r14" cx="0.5" cy="0.34" r="0.62"><stop offset="0" stop-color="#e9c88b" stop-opacity="0.42"/><stop offset="1" stop-color="#e9c88b" stop-opacity="0"/></radialGradient></defs><rect width="1200" height="900" fill="url(#g14)"/><rect width="1200" height="900" fill="url(#r14)"/><rect x="390" y="780" width="420" height="46" fill="#1d1209" opacity="0.75"/><rect x="430" y="754" width="340" height="26" fill="#1d1209" opacity="0.55"/><path d="M524 156 L676 156 L706 241 L494 241 Z" fill="#e9c88b" opacity="0.30"/><path d="M494 241 L706 241 L727 327 L473 327 Z" fill="#e9c88b" opacity="0.35"/><path d="M473 327 L727 327 L737 412 L463 412 Z" fill="#e9c88b" opacity="0.41"/><path d="M463 412 L737 412 L735 498 L465 498 Z" fill="#e9c88b" opacity="0.46"/><path d="M465 498 L735 498 L720 583 L480 583 Z" fill="#e9c88b" opacity="0.52"/><path d="M480 583 L720 583 L695 669 L505 669 Z" fill="#e9c88b" opacity="0.57"/><path d="M505 669 L695 669 L663 754 L537 754 Z" fill="#e9c88b" opacity="0.63"/><circle cx="600" cy="110" r="52" fill="#e9c88b" opacity="0.42"/><circle cx="600" cy="110" r="86" fill="none" stroke="#e9c88b" stroke-opacity="0.30" stroke-width="3"/><circle cx="600" cy="196" r="250" fill="none" stroke="#e9c88b" stroke-opacity="0.13" stroke-width="2"/><circle cx="600" cy="196" r="360" fill="none" stroke="#e9c88b" stroke-opacity="0.10" stroke-width="2"/><circle cx="600" cy="196" r="470" fill="none" stroke="#e9c88b" stroke-opacity="0.07" stroke-width="2"/><rect x="26" y="26" width="1148" height="848" fill="none" stroke="#e9c88b" stroke-opacity="0.28" stroke-width="2"/><text x="60" y="796" font-family="Georgia,serif" font-size="30" fill="#e9c88b" opacity="0.9">04</text><text x="60" y="838" font-family="Helvetica,Arial,sans-serif" font-size="26" fill="#ffffff" opacity="0.82">Bronze portrait study II</text><text x="1140" y="80" text-anchor="end" font-family="Helvetica,Arial,sans-serif" font-size="20" letter-spacing="6" fill="#e9c88b" opacity="0.65">PLACEHOLDER</text></svg>